<svg id="Layer_3_copy" data-name="Layer 3 copy" xmlns="http://www.w3.org/2000/svg" viewBox="0 0 153.05 418.27"><defs><style>.cls-1{fill:#95d4e4;}.cls-2{fill:#b62b24;}.cls-3{fill:#111f2a;}.cls-4{fill:#e62f22;}.cls-5{fill:#faf3d8;}</style></defs><title>balloon</title><path class="cls-1" d="M964.94,584.76v.36l-.07-10.88c7.91-1.26,8.63-2.9,4.24-10.31-1.74-2.94-4.93-5.65,1.18-7.53,12.14-3.74,20.6-12.48,28-22.17,20.35-26.8,33.55-57,38.62-90.15,4.8-31.36-6.69-59.06-33.15-76.24-25.6-16.62-55.33-17.11-81.28-.93-27.32,17-39.2,44.87-34.59,77.08,4.66,32.53,17.9,61.8,36.93,88.34,7.33,10.23,18,19.91,30.75,23.67,6,1.77,6.45,3.43,2.76,8.32-5.08,6.73-4.39,7.95,3.27,9.62V773.32h3.38Z" transform="translate(-886.89 -355.06)"/><path class="cls-2" d="M961.56,573.92c-7.66-1.67-8.35-2.88-3.27-9.62,3.69-4.89,3.26-6.54-2.76-8.32-12.76-3.76-23.41-13.44-30.75-23.67-19-26.54-32.27-55.81-36.93-88.34-4.61-32.2,7.27-60,34.59-77.08,26-16.17,57.68-15.69,83.28.93,26.45,17.18,37.95,44.88,33.15,76.24-5.08,33.19-18.27,63.35-38.62,90.15-7.36,9.69-17.82,18.43-30,22.17-6.11,1.88-2.92,4.59-1.18,7.53,4.39,7.41,3.67,9.05-4.24,10.31A2.4,2.4,0,0,0,961.56,573.92Zm37.35-180.7c2.66-.68,8,.12,7-6-1.13-6.84-20.27-16.17-27.15-13.79-2.09.72-3.24,1.74-2.36,4.12C977.58,380.83,994.3,393.06,998.91,393.22Zm10.22.92c-4.64,0-4.88,2.27-4.16,4.42a23.59,23.59,0,0,0,11.72,13.7c2,1.06,4.31,1.15,5-1.93C1022.65,405.83,1012.48,394.07,1009.13,394.14Z" transform="translate(-886.89 -355.06)"/><path class="cls-3" d="M961.56,573.92a2.4,2.4,0,0,1,3.31.32q0,5.44.07,10.88v188.2h-3.38Z" transform="translate(-886.89 -355.06)"/><path class="cls-4" d="M964.94,584.76v0Z" transform="translate(-886.89 -355.06)"/><path class="cls-5" d="M998.42,393.22c-4.93-.17-22.8-13.24-24.1-16.77-.93-2.54.3-3.63,2.53-4.4,7.35-2.54,27.82,7.44,29,14.75C1007,393.35,1001.26,392.49,998.42,393.22Z" transform="translate(-886.89 -355.06)"/><path class="cls-5" d="M1009.38,394.14c3.55-.07,14.3,12.36,13.26,17.12-.71,3.25-3.15,3.16-5.26,2a25,25,0,0,1-12.4-14.49C1004.22,396.54,1004.47,394.15,1009.38,394.14Z" transform="translate(-886.89 -355.06)"/></svg>