<svg id="Layer_1" data-name="Layer 1" xmlns="http://www.w3.org/2000/svg" viewBox="0 0 1248.99 1146"><defs><style>.cls-1{fill:#8b869a;}.cls-2{fill:#6f6c87;}.cls-3,.cls-5{fill:#877448;}.cls-3{opacity:0.9;}.cls-4{fill:#d0c9bc;}.cls-6{fill:#d4ae59;}.cls-7{fill:#82584e;}.cls-8{fill:#79724d;}.cls-9{fill:#cea14d;}.cls-10{fill:#af101b;}.cls-10,.cls-11{opacity:0.8;}.cls-11{fill:#fff;}</style></defs><title>circle</title><circle class="cls-1" cx="573" cy="573" r="573"/><rect class="cls-2" x="153" y="155" width="867" height="509"/><path class="cls-1" d="M480.59,159c-33.8,15.26-68.67,30.78-105.72,32.23-36.45,1.43-72.11-10.89-108.56-12.48-24.45-1.07-49,2.72-73.38.93-38.69-2.84-76.09-19.58-114.8-17-11.42.75-23.22,3.44-32,10.8C32.34,185,29.47,204.65,25.58,222.26c-13,58.93-46.82,111-66.64,168-1.84,5.3-3.51,11.4-.78,16.31,2.12,3.82,6.42,5.89,10.6,7.14,23.53,7,48.17-4.33,70.42-14.75a1199.22,1199.22,0,0,1,115.84-47c19.45-6.74,39.93-13.06,60.3-10.11,17.48,2.54,33.26,11.69,50.3,16.33,31.59,8.59,65,1.23,97.49-2.47,40.93-4.66,82.15-1.25,122.82-6.4,44.58-5.64,87.22-21.27,131.83-26.8,21.86-2.71,44-2.92,66-2.85,17.66.06,35.47.31,52.69,4.21,16.72,3.79,32.59,11,49.48,14a103.09,103.09,0,0,0,66.73-10.93c-.42-10.26,2.71-20.31,3.62-30.54s-1-21.76-9.14-28.06c-7.64-5.93-18.25-5.48-27.92-5.21-41.81,1.19-83.42-6.22-124-16.2-21-5.16-43.54-12.19-55.83-30a16.86,16.86,0,0,1-3.32-7.74,15.78,15.78,0,0,1,2.13-8.61c6.08-11.75,18.32-18.79,29.9-25.18l75.75-41.77c10.13-5.59,20.62-11.49,27.27-21s8.17-23.61.27-32.06c-21-2.75-40.59,6.35-61.26,9.34-25.08,3.63-50.22,7-75.54,8.41-31.62,1.8-59.55,18-87.91,30.8Z" transform="translate(179 179)"/><path class="cls-3" d="M46.53,676.75c26.5-19,54.6-14,86.14-16.87,24.64-2.28,49.32-4.57,73.61-9.28,27.76-5.38,54.77-13.89,81.45-23.12,7.49-2.59,61.91-20.81,45-35.47-4.16-3.62-12.69-6.33-18-8-16.37-5-32.25-12.64-48.44-18.34-10.21-3.59-20.47-7-30.72-10.47-17.79-6-35.42-9.48-52.23-18.06-17.67-9-34.1-20.21-51.22-30.19-25.38-14.8-61.61-17.06-90.09-20.51C16.82,483.42-33.93,470-42.32,505c-1,4-.84,8.24-.72,12.39l5.18,166.58c.26,8.51.84,17.82,6.6,24.09,8.7,9.46,24.41,7,35.74.9,14.6-7.81,26.33-19.94,39.36-30.16Q45.18,677.71,46.53,676.75Z" transform="translate(179 179)"/><path class="cls-4" d="M144.94,632l6.4-1.57c7.21,22.35,15.45,45.46,19.81,68.56-8.24,1.72-12.69-24.19-14.27-30.08C156,665.63,147.29,631.42,144.94,632Z" transform="translate(179 179)"/><path class="cls-4" d="M132,596.94c2.5-.7,5.54-1.28,7.4.52a7.14,7.14,0,0,1,1.27,1.89c1.3,2.5,12.12,26.42,4.31,26C141.53,625.18,134.82,596.15,132,596.94Z" transform="translate(179 179)"/><path class="cls-4" d="M168.9,643h2.92c3.8,11.1,9.19,23.22,11,34.71-5.3-.15-7.15-10.15-8.5-14C173.71,661.91,168.85,643,168.9,643Z" transform="translate(179 179)"/><path class="cls-4" d="M162,616.65l3,.08c.05,0,5.6,16.87,2.6,18.08C164.91,635.86,162.56,619.34,162,616.65Z" transform="translate(179 179)"/><path class="cls-4" d="M163.85,612.82l-3.3-.07-3.74-13.68a1.45,1.45,0,0,1,0-1,1,1,0,0,1,1.45-.22,2.85,2.85,0,0,1,.86,1.41q2.24,6.17,4,12.49a2.9,2.9,0,0,0-1.82-.2" transform="translate(179 179)"/><path class="cls-4" d="M188.45,621.26a3.67,3.67,0,0,1,3.08,2,10.8,10.8,0,0,1,1.09,3.65c2.29,13.27.9,26.52,2.13,40l-1.11-.31c-2.86-.8-2.61-17.77-2.85-20.88C190.62,643.64,188.93,621.25,188.45,621.26Z" transform="translate(179 179)"/><path class="cls-4" d="M189.72,617.49l-1.57-.08a100.35,100.35,0,0,1-1.89-16c1.11-.61,2.12,1,2.42,2.2a114.08,114.08,0,0,1,2.26,12.94l-1.64,0" transform="translate(179 179)"/><path class="cls-4" d="M186.79,597a1,1,0,0,1-1.37-.14,2.75,2.75,0,0,1-.49-1.46l-1.49-11.35c.69-.66,1.56.61,1.68,1.55l1.2,9.54a1.05,1.05,0,0,1-.16.89c-.22.22-.73,0-.61-.27" transform="translate(179 179)"/><path class="cls-4" d="M202.89,632.85c1.11-.86,2.84-.19,3.6,1a7.65,7.65,0,0,1,.83,4.06l.46,27.55c0,2.35,2.43,20.71-4,17.72-2.88-1.34-.89-20.25-.89-23.72V645.89C202.88,644.12,201.72,633.74,202.89,632.85Z" transform="translate(179 179)"/><path class="cls-4" d="M201,602.38c2.95-4.7,3.41,4.45,3.39,5.18a64.26,64.26,0,0,0,1,12.62,8.54,8.54,0,0,1,.06,4.55c-1.6,4.2-3.64,1-4.43-.85-.92-2.2-.53-5.9-.63-8.26C200.24,612.2,199.06,605.47,201,602.38Z" transform="translate(179 179)"/><path class="cls-5" d="M406.24,445.74c26,3,51.09,11,76.09,18.59,18.22,5.49,37.26,8.34,56.23,9.47,12.86.76,25.72-1,38.57-.18,6,.4,13.29,1.07,18.69,4,5,2.69,9,5.11,15,5.86,2.23.28,4.83.56,6,2.48a26.4,26.4,0,0,0-7.3,4.19,97.27,97.27,0,0,1-10.72,7.51c-3.65,2.25-6.17,5.93-9.8,8.21-6.52,4.09-14,6.44-21.37,8.61A352.7,352.7,0,0,1,377.75,517c-23.42-6.28-46.38-15-70.51-17.39-7.51-.73-14.55.06-22-1.29-17.79-3.09-33.64-10-51.08-14-.5-.12-1.1-.32-1.21-.83s.6-1.07,1.21-1.29C245,478.31,257,477,266.78,471c19-11.79,43.78-16.95,65.71-21.31C356.73,444.83,381.64,442.92,406.24,445.74Z" transform="translate(179 179)"/><path class="cls-6" d="M442.53,384.44c-2.53-.95-3.71-3.91-6-5.32-5.4-3.31-11,.19-16.12-4.68C416,370.22,410,363.8,407.81,358c-1.37-3.67-.6-8.57,2.89-10.35a19.55,19.55,0,0,1-20.39-.39,20.69,20.69,0,0,1-9.07-18.4c.25-3.64,1.67-7.47,4.79-9.36,3.27-2,7.43-1.34,11.2-.64-2-4.85-3.09-10.46-1.07-15.3s8-8.24,12.75-6c2.51,1.17,4.24,3.58,6.65,5s6.33,1,6.91-1.75a5.56,5.56,0,0,0-.51-3.08c-1.7-4.44-4-8.83-4-13.59,0-13.12,16.26-14.8,24.13-7.42,6.18,5.79,13.08,7.12,21.4,8.55a6.41,6.41,0,0,0,3.4-.07c2.5-1,2.94-4.35,2.46-7s-1.46-5.46-.35-7.91c1.34-2.95,5-3.88,8.24-4.24s6.83-.66,8.94-3.12c1.6-1.87,1.87-4.5,2.83-6.77,2.14-5,8.34-8.05,13.55-6.34,19.57,6.43-15,35.25,10.87,32.14,4.29-.51,8.29-2.35,12.37-3.78,3-1,6.15-1.88,9.24-1.3s6,3,6.33,6.11c-3.09,2.39-6.37,5.06-7.33,8.85-1.28,5,2.53,7.8,3.55,12.39.57,2.6.11,5.59-1.83,7.41,2.65-2.09,6.78-1.51,9.27.76s3.5,5.83,3.39,9.2a7,7,0,0,1-1.21,4.14,8.73,8.73,0,0,1-2.18,1.79l-6.36,4.18c-3.33,2.18-8.2,10.35-.73,9.6,5.13-.51,6.73-8.42,13.08-7.53a6,6,0,0,1,1.58,11.49c4.26-.26,8.16,2.35,11.31,5.23,2.27,2.08,4.5,4.68,4.48,7.76,0,4-4.83,7.24-8.57,5.68a5.49,5.49,0,0,0-2.69-.82c-1.36.18-2.06,1.66-2.77,2.84-3,5-10.73,6.38-15.31,2.71a13.35,13.35,0,0,1-4.41,11.67c-4.71,4.08-12.09,3.62-17.57,6.94-7.9,4.77-16,3.33-23.84-1.06-4.07-2.27-8.27-5.11-12.92-4.75-3.76.29-7.18,2.67-10.95,2.67-4.65,0-8.8-3.17-13.49-2.54S448.17,386.56,442.53,384.44Z" transform="translate(179 179)"/><path class="cls-6" d="M294.81,416.2c-4.5-1.93-6.73-5.53-10.84-9-4.37-3.66-8.6-7.48-11.84-12.21-4.5-6.57-6.86-15.11-4.24-22.63-6.1-3.35-7.38-11.74-5.86-18.53s5.07-13.06,6-19.95-.72-13.9-.11-20.82,4.78-14.52,11.69-15.25c7.6-.8,13.26,6.87,16.08,14a77.54,77.54,0,0,1,4.4,15.71,24.38,24.38,0,0,0,1.7,6.7c2.57,5.27,9.63,9.57,7.52,15l7.92-5.46a7,7,0,0,0,2.59-2.57A7.88,7.88,0,0,0,320,337a30.48,30.48,0,0,1,10.77-26.66c5.5-4.5,12.48-7,17.79-11.67,7.15-6.37,11.68-17,21.11-18.63,7.85-1.37,15.43,4.82,18.4,12.22s2.44,15.66,1.87,23.61a26.71,26.71,0,0,1-4.75,45.06L390,372.88c2.84,7.12,5.07,16.67-1.07,21.25-3.21,2.39-8.07,2.66-10.15,6.08-2.21,3.64.2,8.36-.48,12.56-.87,5.33-6.41,8.54-11.62,10a44.45,44.45,0,0,1-25.23-.4c-3.25-1-6.4-2.43-9.76-3-5.15-.88-10.4.24-15.63.31a78.06,78.06,0,0,1-19-2.69A15.67,15.67,0,0,1,294.81,416.2Z" transform="translate(179 179)"/><path class="cls-7" d="M447.89,389a337.55,337.55,0,0,1,23.4-57.36c-7.63-4.8-28.51,55.93-30.91,64.12a279.71,279.71,0,0,0-9.08,42.89c-.47,3.61-.1,6.84-1.4,10.34a9.42,9.42,0,0,1,5.74,2.12c.32-16.82,4.77-34.72,9.09-50.95.85-3.21,1.35-8.75,3.56-11.24s6.16-3.21,8.5-6.38c3.52-4.77,6.34-10,9.9-14.76s8.07-9,13.69-10.9c-.24,2.63-2.82,4.29-5,5.85-8.48,6.2-13,16.28-19.32,24.7a10.24,10.24,0,0,1-2,2.16A17.31,17.31,0,0,1,451.4,391,15.59,15.59,0,0,0,443,403.09" transform="translate(179 179)"/><path class="cls-7" d="M316.82,422.92c1-2.95,2-5.51.28-8.21s-4.31-4.18-5.93-6.72a17.7,17.7,0,0,1-2-5.68c-1.36-6-2.64-12.4-.43-18.13a5.35,5.35,0,0,1,2.16,4,39.25,39.25,0,0,1,0,4.69,23.26,23.26,0,0,0,4.76,13.38c1.1,1.53,3,3.12,4.65,2.21,4.5-8.39,7.87-17,11.41-25.86,1-2.47,2.95-5.46,5.5-4.71-3.94,16.3-10.08,31.94-15,47.95-1.42,4.63-2.62,9.32-3.72,14-1,4.49-2.8,9.44-2.86,14a14.45,14.45,0,0,0-6.72,1.59C311.19,444.54,313.3,433.62,316.82,422.92Z" transform="translate(179 179)"/><path class="cls-8" d="M114.12,289.63c-.62,2.64-12.3,10.28-14.53,12.9-2.82,3.31-9.31,9.74-7.11,14.42C103.19,314.6,111.77,299.53,114.12,289.63Z" transform="translate(179 179)"/><path class="cls-8" d="M205.9,183.76A108,108,0,0,1,223.63,159c-11,4.73-22.45,11.09-28.24,21.75-5.07,9.32-6.49,21.54-7.76,31.66,3.13-2.73,6.21-5.35,8.48-8.9,3.34-5.24,5.55-11,8.21-16.6Q205.08,185.33,205.9,183.76Z" transform="translate(179 179)"/><path class="cls-8" d="M169.53,369.69a108,108,0,0,1,17.73-24.75c-11,4.73-22.45,11.09-28.24,21.75-5.07,9.32-6.49,21.54-7.76,31.66,3.13-2.73,6.21-5.35,8.48-8.9,3.34-5.24,5.55-11,8.21-16.6Q168.71,371.26,169.53,369.69Z" transform="translate(179 179)"/><path class="cls-9" d="M71.94,458.32c6.77-11,14.63-15.63,27.23-21.07,62.75-27.08,112.56-80.44,134.34-145.16q.47-1.4.93-2.81c-3.23.24-4.12.69-4.39,1.67-.35,1.26.35,3.4-1.54,7.12-29.89,58.58-81.88,121.56-145.29,139,19.52-30.55,32.78-71.93,40.72-107.31,8.45-37.69,17.38-41.15,29-63.26,25-47.66,75.31-75.8,121.2-103.93-77.89,24.23-141,91-160.89,170.14-4,15.88-6.41,32.38-13.72,47-17.95-53.13-7.26-115,27.47-159.05-26.7,30.51-37.69,53-40.38,84C85.52,317,85.81,329.58,86,342c.27,16.07,10.1,37.53,3.64,52.91-6.09,14.48-13.49,27.68-19.76,42-11.9,27.19-26,53.55-43.24,77.74-8.55,12-20.9,32.9-33.78,40.43-9.48,5.55-26.79,2.25-31.28,15-1.28,3.64,2,29.36,4.77,31.43,25.29,18.84,94.06-121.35,103-138.72C70.24,461.21,71.08,459.71,71.94,458.32Z" transform="translate(179 179)"/><path class="cls-8" d="M198.68,253.76a139.53,139.53,0,0,1,41.84-10.45c-16.23-5.87-34.43-10.29-50.46-3.88-14,5.61-26.75,18.34-37.39,28.79,5.89.05,11.63.19,17.32-1.59,8.42-2.64,16.12-7.1,24.08-10.81Q196.36,254.74,198.68,253.76Z" transform="translate(179 179)"/><path class="cls-8" d="M230.15,379.3c2.84-.45,5.61-1,8.29-1.67a138.29,138.29,0,0,0,20.77-7.26c8.14-3.43,16.4-6.94,24.17-11.14-2.67-1.23-8.12,1.1-11.16,1.44-11.51,1.28-23.11-.57-34.65-1.54-19.33-1.62-40.3,1.46-54.42,16.06.7-.72,11.26,3.41,12.65,3.83a40,40,0,0,0,11.27,1.57A120.27,120.27,0,0,0,230.15,379.3Z" transform="translate(179 179)"/><path class="cls-8" d="M177.38,418.09c1.7-.49,3.42-1,5.21-1.47,4.69-1.25,10.54-.7,13.18,3.37-1.35-5.94-6.55-10.47-12.32-12.42s-12.06-1.68-18.09-.8a67.68,67.68,0,0,0-20.09,5.88c-4.57,2.24-12.41,4.57-15.89,8.27a95.14,95.14,0,0,0,28.05,1.63C164.67,421.9,170.8,420,177.38,418.09Z" transform="translate(179 179)"/><path class="cls-10" d="M246.3,314.25c.44,1.55-.29,3.29-.92,4.69-1.86,4.13-5.09,7.42-7.45,11.24l-11.51-7.81a8.69,8.69,0,0,1-3-2.83,7,7,0,0,1-.59-3.84c.34-4.65,2.42-9,4.46-13.15l-11.11,5.63a4.17,4.17,0,0,1-4.35.22l-12.54-4.63A2.82,2.82,0,0,1,198,303a2.65,2.65,0,0,1-.37-1.69,21.34,21.34,0,0,1,6.92-15.2,49.21,49.21,0,0,0,18.05,3.68c-1.4-5.48-5.63-9.69-9.16-14.11a4.61,4.61,0,0,1-1.05-1.87,4.56,4.56,0,0,1,.09-1.75,51.31,51.31,0,0,1,5.26-14.85l17.64,10.28a3.65,3.65,0,0,1,1.83,1.77c.61,1.84-1.1,3.73-1.61,5.36a21.25,21.25,0,0,0-.54,6.17l8-11.34a1.72,1.72,0,0,1,.69-.67,1.67,1.67,0,0,1,.87,0,28.75,28.75,0,0,1,9,2.9,4,4,0,0,1,1.5,1.13,4.25,4.25,0,0,1,.57,1.42q1,3.78,1.72,7.62c.56,2.92,1,3.75-1.3,5.54a20,20,0,0,1-4.72,2.28c-1,.41-5,3.37-5.83,3.08a13.35,13.35,0,0,0,6.51.56,2.88,2.88,0,0,1,1.44,0,2.6,2.6,0,0,1,1.12,1.05L262,304.84a1.86,1.86,0,0,1,0,2.84L257.67,313a3.09,3.09,0,0,1-.9.84,3.22,3.22,0,0,1-2.68-.33,50.57,50.57,0,0,0-12.3-3.95c.38,2.39,3.06,2.12,4.16,3.93A3.23,3.23,0,0,1,246.3,314.25Z" transform="translate(179 179)"/><path class="cls-11" d="M235.14,287.29a5.06,5.06,0,0,0-1.5-.59c-1.69-.34-6.35,1.17-6.08,3.37l.49,3.92a4.71,4.71,0,0,0,1.1,3,3.2,3.2,0,0,0,3.89,0,9.36,9.36,0,0,0,2.57-3.28l1.79-3.17a1.8,1.8,0,0,0,.26-.66c.07-.62-.48-1.11-1-1.48A14.83,14.83,0,0,0,235.14,287.29Z" transform="translate(179 179)"/><path class="cls-10" d="M114.07,236.71l-1.42.38c-3.85,1-7.91,2-11.76,1-.61-.16-1.32-.49-1.38-1.12a1.7,1.7,0,0,1,.43-1.09l2.12-3c.29-.41-4.68-6-5.18-6.66A55.47,55.47,0,0,1,92.32,218c2.78-1.53,5.35-3.53,8.38-4.49s6.48-.55,8.7,1.84c1.42-2.67,3-6.53,5.81-7.88l8.94-4.22a23.73,23.73,0,0,0,7.32,3.51c1.86.51-.07,8.74-.15,10.78a39.84,39.84,0,0,0,7.67-4.11,2.07,2.07,0,0,1,1.22-.5,2,2,0,0,1,1.12.6l5.53,4.71L143.07,231c-.9,3-6.27,1.79-6.53,2.56a47.34,47.34,0,0,1-3.63,8c-3.12-1.58-6.2-5.11-9.28-6.28C120.81,234.13,117.11,235.91,114.07,236.71Z" transform="translate(179 179)"/><path class="cls-11" d="M121.45,218.16a11.4,11.4,0,0,0-3,3.74,1,1,0,0,0-.16.63c.07.37.5.54.86.64a30.52,30.52,0,0,0,5.45.93c-.18-1.58-.12-4.23-1-5.57A1.4,1.4,0,0,0,121.45,218.16Z" transform="translate(179 179)"/><path class="cls-8" d="M102.23,500.77c-2.34,1.9-13.33,1.19-16.77,1.86a103.68,103.68,0,0,0-17.62,5.12c-5.7,2.22-28.59,11-29.07,18.23-.39,5.85,26.64-4.1,30.76-5.8A131.32,131.32,0,0,0,102.23,500.77Z" transform="translate(179 179)"/><path class="cls-8" d="M31.23,432.71C30.75,419,30.63,404.8,36,392.18c-1.09,4.51-.47,9.24.29,13.82,4.19,25.43,16.9,58.53,7.88,84C31.05,481.51,31.71,446.6,31.23,432.71Z" transform="translate(179 179)"/><path class="cls-8" d="M69.05,318.1c-4.7-9.12-8-19.15-8.08-29.4l19.23,35c1.26,2.29,9.24,16.47,2.21,15.18C78.35,338.16,70.91,321.7,69.05,318.1Z" transform="translate(179 179)"/><path class="cls-10" d="M254.47,187.24l10.81,5c.1-3.27,1.55-13.17,6-10.1,2.88,2,3.78,8,5.23,11a2.94,2.94,0,0,0,1,1.3,3.27,3.27,0,0,0,1.63.32,29,29,0,0,1,8.9,2.34l8.36,3.19a52.08,52.08,0,0,0,3.69-8.85,4.87,4.87,0,0,0,.29-2.64,5.1,5.1,0,0,0-1.27-2l-10.78-12.16c3.73-1.13,12.89-1.84,15.1-5.23,2.65-4.08,4.63-10.67,5.86-15.38a5.14,5.14,0,0,0,.23-2,5.2,5.2,0,0,0-1.23-2.35,50.5,50.5,0,0,0-15.62-13.58c-3.31-1.74-2.89-1.49-5,.47s-4.17,4-6.41,6c2.87-2.56-.28-10.92-.07-14.14a4,4,0,0,0,0-1.37c-.25-.87-1.16-1.33-2-1.73a53.5,53.5,0,0,1-12.4-8.3,1.24,1.24,0,0,0-1-.45,1.21,1.21,0,0,0-.56.39L253,129.7c-.8.87,5.09,12.31,5.56,14.22l-15.34-4.52c-1.8,3.46-1.45,7.74.14,11.3a29.21,29.21,0,0,0,7.14,9.15,76.41,76.41,0,0,0,9.15,7.29l-7.28,17a1.62,1.62,0,0,0,1,2.59Z" transform="translate(179 179)"/><path class="cls-11" d="M275.17,164.31a39.82,39.82,0,0,1-3.85-8.94l4.95,1.34a2.83,2.83,0,0,1,1.71.94,2.59,2.59,0,0,1,.15,2,14.85,14.85,0,0,1-2.81,6l-.84-1.51" transform="translate(179 179)"/><path class="cls-3" d="M946.66,499.87c-32.23,6.85-63.92,16.31-95.52,25.75L764.87,551.4c-26.57,7.94-53.28,15.93-78.14,28.22-41.59,20.56-78.63,49.48-121.09,68.19-19.81,8.73-40.7,14.83-60.49,23.62-33.28,14.77-62.82,36.85-90.09,61-12.8,11.32-25.23,23.19-39.46,32.64-7.81,5.19-16.18,9.68-23,16.11s-12,15.38-11.3,24.73c76.43,16.09,155-6.49,232.17,2,74.83,8.21,150.17,1.16,225.46,13.2q17.88,2.86,35.63,6.49c13.39,2.74,28.24,5.59,40-1.4,5.47-3.26,9.61-8.34,14.78-12.06,16.92-12.17,40.21-9,56.53-22.45,7.18-5.91,10.47-10.2,19.83-13.05,13.4-4.09,26.6-7,39.48-12.82,10.45-4.73,20.65-10.54,28.38-19,13-14.21,17.49-34,20.76-53,5.32-30.83,9.74-62.24,13.8-93a219.93,219.93,0,0,0-.95-63.77c-2.11-13.06-3.79-37.07-17.28-43.71-6.37-3.14-13.75-3.4-20.85-3.34a371.44,371.44,0,0,0-55.95,5C964.23,496.34,955.43,498,946.66,499.87Z" transform="translate(179 179)"/><path class="cls-9" d="M801.87,626.79c-18.08-34-39.18-66.61-53.11-102.52-8.52-22-14.42-45.29-27.41-64.94-12.42-18.79-30.48-33-46.84-48.43s-31.81-33.61-36.32-55.67C662,398.05,701,412.05,726.31,451c1.75,2.69,6.69,19.09,7.39-.17-9.54-53.53-19.42-108.05-44.8-156.15,3.67.86,6.34,4,8.52,7.07,13.14,18.56,18.48,41.36,23.54,63.52l8.1,35.47c2.24,9.79,4.48,19.59,6.08,29.51,3.58,22.17,4,45.08,11.58,66.24,3.61,10.11,8.76,19.59,13.89,29C775.73,553.26,794.86,587,810,614.83c24-102.78,29.18-117.05,15.75-154.71,10.65,9.86,14.67,24.94,16.34,39.35,4.13,35.45-32.7,102.62-20.61,136.21,3.86,10.73,9.55,20.71,14,31.22,10.79,27,13.73,53.21,16.62,81.65l-14,0c-1.1-15.47-3-32.65-6.5-47.76C825.54,674.86,814.5,650.12,801.87,626.79Z" transform="translate(179 179)"/><path class="cls-9" d="M714.86,614.92a183.59,183.59,0,0,0-20.38-16.29c-35-23.94-79.75-34.9-109.71-64.24-8.15-8-14.94-17.09-21.57-26.23q-11.14-15.35-21.85-31c-2.24-.91-2.87,2.89-1.89,5,15.66,33.53,38.27,56.47,69.06,78.86,23.91,17.38,55.45,27.4,79.53,44.58,20.44,14.59,48,39.42,59.65,61.72C753.82,679,761.41,690,769,700.83c2.48,3.55,5.85,7.14,7.8,11,1.66,3.28,1.58,5.39,2,9.22a2.66,2.66,0,0,0,2.47,2.79,43.76,43.76,0,0,0,14.46,1.46c-1.54.12-6.58-14.18-7.85-16.21q-7.37-11.75-15.18-23.22c-5.14-7.55-12.31-15.08-16.33-23.24-7.53-15.27-15.13-29.41-26.23-42.69-18.39-22-27-50.82-44.47-73.56-3.79-4.92-8.06-9.92-13.91-12q24.94,41.12,47.2,83.79C718.13,617.48,715.66,615.65,714.86,614.92Z" transform="translate(179 179)"/><path class="cls-8" d="M629.69,539.39a106.57,106.57,0,0,0,5.41-25.18c3.21,8.61,5.75,17.62,5.8,26.81,0,5.53-1.26,23-9.56,22.67C620.57,563.25,628,544.41,629.69,539.39Z" transform="translate(179 179)"/><path class="cls-8" d="M788.48,483c3.91,1.44,6.57,5,9,8.37l19.73,27.38c3.5,4.86,6.63,8.88,8.94,14.66a62.64,62.64,0,0,1-29.38-26.79,71.89,71.89,0,0,1-5.21-11.44C791.07,493.78,789.16,483.23,788.48,483Z" transform="translate(179 179)"/><path class="cls-8" d="M857.1,552.48c1.59,4.88,4.13,9.78,3.4,14.86s-4.67,9.22-9,12-9.21,4.74-13.46,7.69-7.64,6.73-11,10.51l-5.69,6.31c.68-.75.26-7.59.66-9a17.42,17.42,0,0,1,2.64-5.55c2.93-4.37,7.17-8.3,11-11.91C843.51,569.85,852.65,562.81,857.1,552.48Z" transform="translate(179 179)"/><path class="cls-8" d="M839.66,418.61a29.22,29.22,0,0,1,3.77,11.65c.41,5.41-1.26,10.8-3.84,15.57-1.85,3.42-4.61,8.79-8.12,10.5C833.85,443.66,838.42,431.71,839.66,418.61Z" transform="translate(179 179)"/><path class="cls-8" d="M799.17,452.35c-7.71-3.77-13.94-10-15.17-17.3,9.47,1.64,36.45,13.08,35.15,22.51A51.61,51.61,0,0,1,799.17,452.35Z" transform="translate(179 179)"/><path class="cls-8" d="M650.14,384.44c-13.85-5.34-27.62-9.86-40.5-17.44-9.37-5.51-19.24-12.27-30-11,8.89,1.43,15.08,9.22,22,15a57.84,57.84,0,0,0,24.59,12.12,69.19,69.19,0,0,0,13.73,1.39C642.59,384.62,647.81,383.54,650.14,384.44Z" transform="translate(179 179)"/><path class="cls-8" d="M662.32,375.27c0-4.91.77-9.86-.06-14.7a34.17,34.17,0,0,1,9.13,18.1c.59,3.6.53,10.93-4.85,9.17C662.45,386.5,662.3,378.61,662.32,375.27Z" transform="translate(179 179)"/><path class="cls-8" d="M706.8,297.27c1.3-2.63,3.16-5,3.84-7.89L714,301.28a10.42,10.42,0,0,1,.59,3.89,7,7,0,0,1-3.39,4.94C701.87,316.16,704.31,302.32,706.8,297.27Z" transform="translate(179 179)"/><path class="cls-8" d="M741.44,317c.59,13.87-7.19,38.45-18.36,46.24-4.26-4-2-11.09-.35-16.77C726,335.08,737.82,328.37,741.44,317Z" transform="translate(179 179)"/><path class="cls-8" d="M549.73,544.35c-13.44-3.7-24.33-13.29-36.42-20.24a137.72,137.72,0,0,1,20.85,4.43c3,.87,5.87,1.84,8.79,2.81l10.13,3.36c4.34,1.44,30,7.31,30,11.59-4.69,1.25-11.37.25-16.32.14A70,70,0,0,1,549.73,544.35Z" transform="translate(179 179)"/><path class="cls-10" d="M515.5,481.27l-.18-.26a.86.86,0,0,1,.06-1.29l4.43-5.61a31.23,31.23,0,0,1-14.07,4.69,2.59,2.59,0,0,1-1.13-.08,2.64,2.64,0,0,1-1-.82c-1.28-1.5-6.1-6.54-5.27-8.44.43-1,2.33-2.3,3.15-3,2.84-2.54,7.06-3.06,10.62-4.1a48.85,48.85,0,0,0-6.59-4.39,3.61,3.61,0,0,1-1.17-.91c-.75-1-.23-2.47.26-3.65A46.08,46.08,0,0,0,507.72,442l9,.71a12.55,12.55,0,0,1,5.17,1.16,7.84,7.84,0,0,1,2.3,2c.4.5,1,2,1.52,2.28,2.07.89,1.24-3.71,1.15-4.56a3.5,3.5,0,0,1,.23-2.29,3.26,3.26,0,0,1,2.13-1.14c4.33-1,8.57-3.26,12.58-5.12.37-.17,3.69,5.16,4,5.7a23.07,23.07,0,0,1,2.47,5.49,2,2,0,0,1,0,1.32,2.34,2.34,0,0,1-.49.66c-.79.84-3.55,3.56-3.05,4.82.64,1.6,3.29-.27,4.24-.61l2.83-1a5.23,5.23,0,0,1,1.6-.39,5,5,0,0,1,2.09.55,66.29,66.29,0,0,1,7.3,3.68,47.14,47.14,0,0,1-4.31,9.46,2.1,2.1,0,0,1-.65.76,2.15,2.15,0,0,1-1.08.22q-4.62.12-9.25.09a86.23,86.23,0,0,0,12.89,1.59,61,61,0,0,0,4.17,10.81q-3.75,2.72-7.75,5.07a2.45,2.45,0,0,1-2.82.13,127,127,0,0,1-19.51-10.28l.91,9.84a2.14,2.14,0,0,1-1.39,2.67l-10.21,5.5a1.62,1.62,0,0,1-.93.28c-.45-.06-.77-.47-1-.85Z" transform="translate(179 179)"/><path class="cls-11" d="M533.72,460.92a5.06,5.06,0,0,0-1.07-1.21c-1.35-1.07-6.18-1.85-6.94.23l-1.35,3.72a4.71,4.71,0,0,0-.37,3.14,3.2,3.2,0,0,0,3.47,1.76,9.36,9.36,0,0,0,3.78-1.75l3-2a1.8,1.8,0,0,0,.53-.47c.34-.52.08-1.21-.2-1.77A14.83,14.83,0,0,0,533.72,460.92Z" transform="translate(179 179)"/><path class="cls-10" d="M622.13,358.57l.11,0c-3.46-2.26-10.55-.91-14.54-.94l-3.1-8.89c4.88-2.57,10.17-5.6,12-10.8a55.57,55.57,0,0,0,12.32,10.19,50.36,50.36,0,0,0-.26-15.68l9.59-5.65a3.12,3.12,0,0,1,2.08-.63,3.37,3.37,0,0,1,1.63,1.15,20.23,20.23,0,0,0,4.6,3.54c.7.39,4.12,1.33,4.35,2-.1-.27-2.56,8.43-2,8.05a13.3,13.3,0,0,1,8.85-2.24,39.56,39.56,0,0,1,9.07,2.06,32.18,32.18,0,0,0,.22,9.16l-13.78,5.43a11.39,11.39,0,0,1,12.7,5.44l-2.22,1.49c-3.46,2.32-7.23,4.73-11.4,4.57-3.78-.15-7.11-2.41-10.2-4.58a68.2,68.2,0,0,1-3.62,8.12,47.15,47.15,0,0,0-14.56-2.55,12,12,0,0,1-4.47-.57c-.61-.26-3.82-4.54-3.69-4.63A30.5,30.5,0,0,1,622.13,358.57Z" transform="translate(179 179)"/><path class="cls-11" d="M629.95,352c1-.78,1.95-1.51,3-2.23q3.26-2.3,6.69-4.33c.29-.17.68-.33.92-.11a.77.77,0,0,1,.18.33c.58,1.64,1,4.12.39,5.82s-2.21,2.14-3.88,2.36a27.36,27.36,0,0,1-4-.09C632.25,353.71,627.46,354,629.95,352Z" transform="translate(179 179)"/><path class="cls-10" d="M808.15,433.34c-.27-1.66-.24-3.73,1.22-4.58a6.73,6.73,0,0,0,4,1.56,86.13,86.13,0,0,1,6.29-15c.3-.56.74-1.19,1.37-1.15a1.64,1.64,0,0,1,.91.48,23.09,23.09,0,0,1,6.1,8.17,5.52,5.52,0,0,0,1,1.74c1.23,1.23,3.32.83,4.87.05s3.09-1.87,4.83-1.78c2.73.13,4.48,3.26,4.26,6s-1.79,5.12-3.15,7.49a56.25,56.25,0,0,0-3.54,7.41c-.78,2-.82,4.92-2.06,6.58L830.66,455a8.86,8.86,0,0,1-3.44,3.19,6,6,0,0,1-5.39-.83,17.63,17.63,0,0,1-3.95-4C813,447.19,809.52,441.25,808.15,433.34Z" transform="translate(179 179)"/><path class="cls-10" d="M657.86,287.49a65,65,0,0,1-4.13-6.12L667,277.84c-2.9-7-6.82-14.27-3.38-20.91l10.1,1.37a4.66,4.66,0,0,1,2.62.95,5.87,5.87,0,0,1,1.32,2.17l3.67,8.74c2.5-3.51,3.34-8.31,5.88-11.79,3.12-4.27,8.36-6,13.34-7.53a32,32,0,0,1,7.82,9.14c-2.36,4.6-5.55,8.23-8.5,12.28,5.77.46,11.68,1.53,17.49,2.36l0,14.22a109.64,109.64,0,0,0-19.4,1l-1.46,7.66a1.38,1.38,0,0,1-.35.82,1.3,1.3,0,0,1-1.05.11,48.93,48.93,0,0,0-11.52-.37c-4.64.2-9.7-2.29-14.36-3.46a22.86,22.86,0,0,1-5.59-1.92A19.36,19.36,0,0,1,657.86,287.49Z" transform="translate(179 179)"/><path class="cls-11" d="M680.07,282.14c-.59-.43-1.24-1-1.26-1.69q3.93-2.28,8-4.35a.84.84,0,0,1,1.19.09l3.19,2.81-3.9,6.14C685.59,287.78,681.81,283.41,680.07,282.14Z" transform="translate(179 179)"/><path class="cls-8" d="M687.17,464.72a11.64,11.64,0,0,0,3.88,1.89,32.72,32.72,0,0,0,5.29.7c7.72.62,20.49,4,28.25,1.69a2.81,2.81,0,0,0,1.37-.68c.3-.42-.19-.81-.66-1.13l-11.19-7.53a53.81,53.81,0,0,0-12.86-6.95c-5.77-2-12.85-2.91-19.8-3.79-4.44-.56-13.59-3.12-16.19.28-1.33,1.74,3.54,4.52,5.12,5.65C675.4,458.41,682,461.23,687.17,464.72Z" transform="translate(179 179)"/><path class="cls-4" d="M541.43,699.62l9.06,1.09c-.24,30.53.55,62.45-3.74,92.55-11.55-1.76-6.15-35.32-5.68-43.21C541.34,745.65,544.75,700,541.43,699.62Z" transform="translate(179 179)"/><path class="cls-4" d="M539.71,651c3.58.31,7.81,1,9.47,4.09A9.2,9.2,0,0,1,550,658c.62,3.65,4.43,37.76-5.62,33.61C539.91,689.74,543.7,651.35,539.71,651Z" transform="translate(179 179)"/><path class="cls-4" d="M568.05,724.18l3.82,1.36c.17,15.26,2,32.5-.59,47.32-6.88-2.66-5-15.67-5.07-21C566.17,749.41,568,724.16,568.05,724.18Z" transform="translate(179 179)"/><path class="cls-4" d="M570.4,688.94l3.84,1.48c.07,0,0,23.11-4.42,23.18C565.93,713.65,570,692.47,570.4,688.94Z" transform="translate(179 179)"/><path class="cls-4" d="M574.52,685.16l-4.29-1.63,1-18.36a1.74,1.74,0,0,1,.38-1.2,1.45,1.45,0,0,1,2,.41,3.64,3.64,0,0,1,.51,2.12q.26,8.55-.11,17.07a4.32,4.32,0,0,0-2.3-1.09" transform="translate(179 179)"/><path class="cls-4" d="M513.62,742.36a13.69,13.69,0,0,1,8.56,2,9.67,9.67,0,0,1,3.29,4.5c7.43,16.64,4.82,34,9.36,51.08l-3.05-.19c-7.86-.49-8.69-22.37-9.62-26.33C521.54,770.74,514.93,742.25,513.62,742.36Z" transform="translate(179 179)"/><path class="cls-4" d="M587.66,717.07c1.82-.52,3.81,1.09,4.28,2.88s-.1,3.6-.68,5.31l-11.33,33.68c-1,2.87-5.79,26.3-12.94,19.65-3.2-3,7.6-25,9.11-29.23L582,732.9C582.77,730.76,585.75,717.6,587.66,717.07Z" transform="translate(179 179)"/><path class="cls-4" d="M599.72,677.82c5.9-4.33,2.53,7,2.21,7.87a77,77,0,0,0-4.16,15.8c-.29,2-.56,4.06-1.9,5.55-3.92,4.36-5.22-.46-5.43-3.1-.25-3.11,1.86-7.41,2.75-10.33C594.47,689.41,595.84,680.67,599.72,677.82Z" transform="translate(179 179)"/><path class="cls-4" d="M495.27,692.39c1.6-4.37,4.88-5.87,8.64.23.91,1.48,21.36,39.43,15.48,39.43H507.12c-3.21-6.49-5.39-14.26-8.33-21.1-1.87-4.34-5.11-11.16-4.19-16.07A15.82,15.82,0,0,1,495.27,692.39Z" transform="translate(179 179)"/></svg>