<?xml version="1.0" encoding="utf-8"?>
<!-- Generator: Adobe Illustrator 21.0.2, SVG Export Plug-In . SVG Version: 6.00 Build 0)  -->
<svg version="1.1" xmlns="http://www.w3.org/2000/svg" xmlns:xlink="http://www.w3.org/1999/xlink" x="0px" y="0px"
	 viewBox="0 0 1366 768" style="enable-background:new 0 0 1366 768;" xml:space="preserve">
<style type="text/css">
	.st0{opacity:0.9;fill:#877448;}
	.st1{fill:#79724D;}
	.st2{fill:#CEA14D;}
	.st3{opacity:0.8;fill:#AF101B;}
	.st4{opacity:0.8;fill:#FFFFFF;}
	.st5{fill:#D4AE59;}
	.st6{fill:#82584E;}
	.st7{fill:#D0C9BC;}
</style>
<g id="Layer_1">
</g>
<g id="Layer_2">
</g>
<g id="Layer_4">
	<path class="st0" d="M717.9,293.6c28.2,3.2,55.2,11.9,82.3,20.1c19.7,5.9,40.3,9,60.8,10.2c25.4,1.5,51.6-6.1,73.5,10.8
		c1.8,1.4,3.6,3.1,3.7,5.3c0.1,2.1-1.4,3.9-3,5.2c-3.1,2.5-6.9,3.1-10,5.2c-3.4,2.3-6,5.9-9.6,8.1c-7.1,4.4-15.2,7-23.1,9.3
		c-22.2,6.5-44.9,11-67.9,13.4c-45.9,4.8-92.8,1.4-137.4-10.6c-25.3-6.8-50.1-16.3-76.2-18.8c-8.1-0.8-15.7,0.1-23.8-1.4
		c-15.8-2.8-35-7.2-48.7-15.9c-1.9-1.2-3.9-3.4-2.9-5.3c0.4-0.7,1.2-1.2,1.9-1.6c11.2-6.1,22.7-6.4,34.4-10.7
		C618.4,300,668.1,287.9,717.9,293.6z"/>
	<path class="st0" d="M-55.1,628.2c21.5,18,25.8-21.9,42.1-30.5c11.5-6.1,24.8-7.4,37.8-8.6c14.5-1.3,29-2.7,43.6-4
		c38.7-3.6,77.5-7.2,115.7-14.6c43.6-8.5,86.1-21.8,128.1-36.4c11.8-4.1,97.3-32.7,70.8-55.8c-6.5-5.7-19.9-9.9-28.3-12.5
		c-25.7-7.9-50.7-19.9-76.2-28.8c-16-5.6-32.2-11.1-48.3-16.5c-28-9.4-55.7-14.9-82.1-28.4c-27.8-14.2-53.6-31.8-80.5-47.5
		c-39.1-22.8-82.9-42-127.9-38c-3.2,69.5-2.8,139.2,1.4,208.7c1.3,37.4,4.1,75.4,3.7,112.7C-55.3,628.1-55.2,628.1-55.1,628.2z"/>
	<path class="st1" d="M239.9,157.9c-1.8,2.1-15.6,3.6-18.8,4.9c-4,1.7-12.7,4.4-12.9,9.6C218.8,175.1,233.3,165.6,239.9,157.9z"/>
	<path class="st1" d="M369.8,105.4c8.3-5.9,17.4-10.6,27.1-14c-12-0.8-25-0.3-35,6.5c-8.8,6-15.6,16.2-21.3,24.7c4-1,8-1.9,11.6-4.1
		c5.4-3.1,10-7.3,14.9-11C367.9,106.8,368.8,106.1,369.8,105.4z"/>
	<path class="st1" d="M252.8,254.4c8.3-5.9,17.4-10.6,27.1-14c-12-0.8-25-0.3-35,6.5c-8.8,6-15.6,16.2-21.3,24.7c4-1,8-1.9,11.6-4.1
		c5.4-3.1,10-7.3,14.9-11C250.9,255.8,251.8,255.1,252.8,254.4z"/>
	<path class="st2" d="M125.6,288.9c11-6.7,20.1-7.3,33.8-6.4c68.2,4.4,136.8-20.4,185.7-68.1c0.7-0.7,1.4-1.4,2.1-2.1
		c-3-1.3-4-1.3-4.7-0.5c-0.9,1-1.2,3.2-4.6,5.6c-53.3,38.6-128.2,71-192.6,57.6c31.3-18.3,61.9-49.1,85.1-77
		c24.7-29.7,34.2-28.7,54.6-43.1c44-31.1,101.6-33.2,155.2-37.4c-80.4-13.9-167,16.9-220.7,78.3c-10.8,12.3-20.4,25.9-33.6,35.6
		c8.2-55.5,45.9-105.7,96.8-129.1c-37.7,15-57.7,30-74.2,56.4c-6.6,10.5-12.1,21.8-17.5,33c-7.1,14.4-8.1,38-20.8,48.8
		c-12,10.1-24.6,18.5-36.7,28.4c-23,18.8-47.5,35.9-73.9,49.5c-13.1,6.8-33.6,19.8-48.5,20.6c-11,0.6-24.9-10.2-34.7-0.9
		c-2.8,2.7-11.6,27.1-10.1,30.2c13.9,28.3,139-65.2,154.9-76.6C122.7,290.7,124.2,289.7,125.6,288.9z"/>
	<path class="st1" d="M331.5,164.4c14.4,1,28.6,4.3,42,9.7c-11.8-12.6-26-24.8-43.2-26.4c-15-1.4-32.2,4.2-46.4,8.6
		c5.2,2.7,10.3,5.5,16.1,6.5c8.7,1.5,17.6,1,26.4,1.3C328.2,164.2,329.8,164.3,331.5,164.4z"/>
	<path class="st1" d="M302.4,290.5c2.7,0.9,5.5,1.7,8.1,2.3c7.6,1.8,14.8,2.5,21.8,3c8.8,0.6,17.8,1.3,26.6,1.1
		c-1.8-2.3-7.7-2.7-10.6-3.8c-10.8-4.1-20.3-11-30.2-17.1c-16.5-10.2-36.5-17-55.8-10.5c0.9-0.3,8.5,8.2,9.5,9.2
		c3.1,3,5.7,4.5,9.3,6.5C288.1,285,295.3,288.2,302.4,290.5z"/>
	<path class="st1" d="M237.8,301.1c1.7,0.3,3.5,0.7,5.3,1.1c4.7,1,9.7,4.2,10.2,9c1.5-5.9-1.1-12.3-5.3-16.7s-10-7-15.7-8.9
		c-6.6-2.3-13.6-3.8-20.6-3.9c-5.1-0.1-13.1-1.6-17.9,0.1c7.3,5.9,15.5,10.7,24.2,14.2C224.7,298.7,231,299.8,237.8,301.1z"/>
	<path class="st3" d="M346.4,240c-0.3,1.6-1.8,2.8-3,3.8c-3.5,2.8-7.9,4.3-11.8,6.6c-2.2-4.1-4.5-8.1-6.7-12.2
		c-0.7-1.2-1.4-2.5-1.4-3.9c0-1.3,0.5-2.6,1.2-3.7c2.4-4,6.2-6.9,10-9.7c-4.1,0-8.3,0-12.4,0c-0.7,0-1.5,0-2.1-0.3
		c-0.7-0.3-1.3-0.9-1.8-1.5c-3-3.3-6-6.6-9.1-9.8c-0.4-0.4-0.7-0.8-0.8-1.3c-0.1-0.6,0.2-1.2,0.4-1.7c2.7-5,7.6-8.9,13.1-10.4
		c4,4.7,8.9,8.6,14.4,11.5c1.2-5.5-0.6-11.2-1.7-16.7c-0.1-0.7-0.3-1.5-0.1-2.1c0.2-0.6,0.5-1,0.9-1.5c3.2-4.2,7.1-7.8,11.4-10.8
		c3.7,5.7,7.4,11.5,11,17.2c0.5,0.7,1,1.6,0.8,2.4c-0.3,1.9-2.7,2.8-3.9,4c-1.5,1.5-2.3,3.4-3.3,5.2c4.1-2.2,8.2-4.3,12.3-6.5
		c0.3-0.2,0.6-0.3,0.9-0.3c0.3,0,0.5,0.2,0.8,0.4c2.6,1.8,4.8,4.1,6.7,6.7c0.4,0.5,0.7,1.1,0.8,1.7c0.1,0.5,0,1-0.1,1.5
		c-0.6,2.5-1.2,5.1-1.9,7.6c-0.8,2.9-0.8,3.8-3.7,4.3c-1.8,0.3-3.4,0-5.2-0.1c-1-0.1-6,0.7-6.6,0.1c1.5,1.6,3.4,2.8,5.5,3.5
		c0.5,0.1,1,0.3,1.3,0.6c0.4,0.4,0.4,0.9,0.5,1.4c0.6,4.3,1.2,8.5,1.9,12.8c0.1,0.6,0.2,1.2-0.2,1.7c-0.3,0.4-0.7,0.6-1.1,0.8
		c-2.1,0.9-4.2,1.8-6.3,2.7c-0.4,0.2-0.8,0.3-1.2,0.3c-0.9,0-1.6-0.8-2.2-1.5c-2.7-3.3-5.7-6.7-9.2-9.1c-0.8,2.3,1.8,3.3,1.9,5.4
		C346.5,239.4,346.4,239.7,346.4,240z"/>
	<path class="st4" d="M348.7,210.9c-0.3-0.5-0.6-0.9-1.1-1.2c-1.4-1.1-6.2-1.9-6.9,0.2c-0.5,1.2-0.9,2.5-1.4,3.7
		c-0.4,1-0.7,2.1-0.4,3.1c0.5,1.3,2.1,1.9,3.5,1.8c1.4-0.2,2.6-1,3.8-1.8c1-0.7,2-1.3,3-2c0.2-0.1,0.4-0.3,0.5-0.5
		c0.3-0.5,0.1-1.2-0.2-1.8C349.3,212,349.1,211.4,348.7,210.9z"/>
	<path class="st3" d="M263.9,110.7c-0.5-0.1-1-0.2-1.4-0.3c-3.9-0.8-8-1.8-10.9-4.4c-0.5-0.4-0.9-1-0.7-1.6c0.1-0.4,0.5-0.6,0.9-0.8
		c1.1-0.6,2.2-1.1,3.3-1.7c0.4-0.2-1.4-7.5-1.6-8.3c-0.5-3.1-0.3-6.3-0.3-9.4c3.2-0.1,6.4-0.7,9.5-0.2c3.1,0.5,6,2.5,6.9,5.6
		c2.5-1.7,5.6-4.5,8.8-4.4c3.3,0.1,6.6,0.2,9.9,0.3c1.3,2.4,2.9,4.6,4.9,6.5c1.4,1.3-4,7.8-5,9.5c2.9,0.3,5.8,0.2,8.7-0.2
		c0.4-0.1,0.9-0.1,1.3,0.1c0.4,0.2,0.6,0.6,0.7,1c0.9,2.2,1.9,4.5,2.8,6.7c-3.1,3.2-6.1,6.4-9.2,9.7c-2.2,2.3-6.4-1.3-7-0.7
		c-2.1,2-4.4,3.8-6.8,5.4c-2.1-2.8-3.2-7.4-5.4-9.8C271.1,111.5,267,111.4,263.9,110.7z"/>
	<path class="st4" d="M278.9,97.6c-1.5,0.2-3.4,1.4-4.3,2c-0.2,0.1-0.4,0.3-0.4,0.5c-0.1,0.4,0.2,0.7,0.5,1c1.4,1.2,2.9,2.3,4.4,3.3
		c0.6-1.5,1.8-3.8,1.6-5.4C280.6,97.8,279.9,97.5,278.9,97.6z"/>
	<path class="st1" d="M133.2,340.5c-3,0.6-12.4-5-15.8-6c-5.9-1.7-11.9-2.8-18-3.5c-6.1-0.6-30.5-3.2-34.2,3c-3,5,25.6,8.5,30,8.8
		C108,343.9,120.8,343.1,133.2,340.5z"/>
	<path class="st1" d="M101,247.6c5.8-12.4,12.2-25.1,22.7-33.9c-3,3.5-4.6,8-6,12.4c-7.8,24.6-11.6,59.8-31.2,78.4
		C78.6,290.9,95.1,260.1,101,247.6z"/>
	<path class="st1" d="M186.8,162.7c0-10.3,1.6-20.7,6.2-29.9c0.4,13.3,0.8,26.6,1.2,39.9c0.1,2.6,0.7,18.9-4.9,14.5
		C186,184.8,186.8,166.8,186.8,162.7z"/>
	<path class="st3" d="M411.5,130.6c2.5,3.1,4.9,6.2,7.4,9.4c1.6-2.9,7.4-11,9.9-6.3c1.7,3.1-0.3,8.9-0.4,12.2c0,0.5,0,1.1,0.3,1.6
		c0.3,0.5,0.8,0.8,1.3,1c2.7,1.5,4.8,3.8,6.9,6.1c2,2.2,4,4.4,6,6.6c2.6-1.8,5.1-3.9,7.3-6.2c0.6-0.6,1.3-1.3,1.5-2.2
		c0.2-0.8,0-1.6-0.2-2.4c-1.4-5.2-2.7-10.5-4.1-15.7c3.8,0.7,12.3,4.2,15.8,2.2c4.2-2.4,9-7.4,12.2-11c0.5-0.5,0.9-1,1.1-1.7
		c0.3-0.8,0.1-1.8,0-2.7c-1.3-6.6-3.8-13.6-7.7-19.2c-2.2-3.1-1.9-2.6-4.6-1.8c-2.6,0.8-5.6,1.7-8.5,2.5c3.7-1,4.7-9.8,6.4-12.6
		c0.2-0.4,0.5-0.8,0.6-1.2c0.2-0.9-0.4-1.7-1-2.4c-3-4-5.5-8.4-7.3-13c-0.1-0.4-0.3-0.8-0.7-0.9c-0.2-0.1-0.5,0-0.7,0.1
		c-5.5,1.9-11.1,3.8-16.6,5.7c-1.1,0.4-1.1,13.3-1.5,15.2c-3.9-3.7-7.7-7.3-11.6-11c-3.2,2.3-4.8,6.2-5,10.1
		c-0.2,3.9,0.9,7.7,2.2,11.4c1.3,3.7,3,7.2,4.8,10.7c-4.7,3.9-9.5,7.9-14.2,11.8c-0.4,0.3-0.9,0.7-0.9,1.3c-0.1,0.5,0.3,1,0.6,1.5
		C411,130,411.2,130.3,411.5,130.6z"/>
	<path class="st4" d="M440.3,119.6c-0.2-3.2,0-6.5,0.6-9.7c1.3,1.1,2.5,2.3,3.8,3.4c0.5,0.4,1,1,1.1,1.6c0.1,0.7-0.3,1.3-0.8,1.8
		c-1.4,1.7-3.2,3.1-5.2,4c0-0.6,0-1.1-0.1-1.7"/>
	<path class="st5" d="M757.2,228.4c-2.7-1-4-4.2-6.5-5.7c-5.8-3.6-11.9,0.2-17.4-5.1c-4.8-4.6-11.3-11.5-13.6-17.7
		c-1.5-4-0.7-9.3,3.1-11.2c-6.6,4-15.5,3.8-22-0.4c-6.5-4.2-10.3-12.2-9.8-19.9c0.3-3.9,1.8-8.1,5.2-10.1c3.5-2.1,8-1.5,12.1-0.7
		c-2.2-5.2-3.3-11.3-1.2-16.5s8.6-8.9,13.8-6.5c2.7,1.3,4.6,3.9,7.2,5.4c2.6,1.5,6.8,1,7.5-1.9c0.2-1.1-0.1-2.3-0.6-3.3
		c-1.8-4.8-4.3-9.5-4.3-14.7c0-14.2,17.6-16,26.1-8c6.7,6.3,14.1,7.7,23.1,9.2c1.2,0.2,2.5,0.4,3.7-0.1c2.7-1.1,3.2-4.7,2.7-7.6
		c-0.5-2.9-1.6-5.9-0.4-8.5c1.4-3.2,5.4-4.2,8.9-4.6c3.5-0.4,7.4-0.7,9.7-3.4c1.7-2,2-4.9,3.1-7.3c2.3-5.5,9-8.7,14.6-6.9
		c21.2,7-16.3,38.1,11.8,34.7c4.6-0.6,9-2.5,13.4-4.1c3.2-1.1,6.6-2,10-1.4s6.5,3.2,6.8,6.6c-3.3,2.6-6.9,5.5-7.9,9.6
		c-1.4,5.5,2.7,8.4,3.8,13.4c0.6,2.8,0.1,6-2,8c2.9-2.3,7.3-1.6,10,0.8c2.7,2.5,3.8,6.3,3.7,9.9c-0.1,1.6-0.3,3.2-1.3,4.5
		c-0.6,0.8-1.5,1.4-2.4,1.9c-2.3,1.5-4.6,3-6.9,4.5c-3.6,2.4-8.9,11.2-0.8,10.4c5.5-0.6,7.3-9.1,14.1-8.1c2.8,0.4,5.2,2.8,5.6,5.6
		c0.4,2.8-1.3,5.7-3.8,6.9c4.6-0.3,8.8,2.5,12.2,5.7c2.5,2.2,4.9,5.1,4.8,8.4c0,4.4-5.2,7.8-9.3,6.1c-0.9-0.4-1.9-1-2.9-0.9
		c-1.5,0.2-2.2,1.8-3,3.1c-3.3,5.4-11.6,6.9-16.5,2.9c0.6,4.6-1.2,9.5-4.8,12.6c-5.1,4.4-13.1,3.9-19,7.5
		c-8.5,5.2-17.3,3.6-25.8-1.1c-4.4-2.5-8.9-5.5-14-5.1c-4.1,0.3-7.8,2.9-11.8,2.9c-5,0-9.5-3.4-14.6-2.7
		C766.6,226,763.3,230.7,757.2,228.4z"/>
	<path class="st5" d="M597.5,262.7c-4.9-2.1-7.3-6-11.7-9.7c-4.7-4-9.3-8.1-12.8-13.2c-4.9-7.1-7.4-16.3-4.6-24.5
		c-6.6-3.6-8-12.7-6.3-20c1.6-7.3,5.5-14.1,6.5-21.6c1-7.4-0.8-15-0.1-22.5c0.7-7.5,5.2-15.7,12.6-16.5c8.2-0.9,14.3,7.4,17.4,15.1
		c2.2,5.5,3.8,11.2,4.8,17c0.4,2.5,0.7,5,1.8,7.2c2.8,5.7,10.4,10.3,8.1,16.3c2.9-2,5.7-3.9,8.6-5.9c1.1-0.8,2.2-1.6,2.8-2.8
		c0.6-1.4,0.4-3,0.2-4.6c-1.3-10.7,3.3-22,11.6-28.8c5.9-4.9,13.5-7.5,19.2-12.6c7.7-6.9,12.6-18.4,22.8-20.1
		c8.5-1.5,16.7,5.2,19.9,13.2s2.6,16.9,2,25.5c7.7,6,12,16.1,10.9,25.8c-1,9.7-7.3,18.7-16.1,22.9c1.7,4.3,3.4,8.6,5.1,12.9
		c3.1,7.7,5.5,18-1.2,23c-3.5,2.6-8.7,2.9-11,6.6c-2.4,3.9,0.2,9-0.5,13.6c-0.9,5.8-6.9,9.2-12.6,10.8c-8.9,2.5-18.5,2.3-27.3-0.4
		c-3.5-1.1-6.9-2.6-10.5-3.3c-5.6-1-11.2,0.3-16.9,0.3c-6.4,0.1-14.3-1.3-20.5-2.9C599,263.3,598.2,263.1,597.5,262.7z"/>
	<path class="st6" d="M763,233.3c6.6-21.8,14.7-41.3,25.3-62c-8.2-5.2-30.8,60.5-33.4,69.3c-4.4,15.2-7.8,30.7-9.8,46.4
		c-0.5,3.9-0.1,7.4-1.5,11.2c2.2,0,4.5,0.9,6.2,2.3c0.3-18.2,5.2-37.5,9.8-55.1c0.9-3.5,1.5-9.5,3.8-12.1c2.3-2.6,6.7-3.5,9.2-6.9
		c3.8-5.2,6.8-10.8,10.7-16c3.9-5.1,8.7-9.8,14.8-11.8c-0.3,2.8-3.1,4.6-5.4,6.3c-9.2,6.7-14.1,17.6-20.9,26.7
		c-0.6,0.9-1.3,1.7-2.2,2.3c-0.9,0.7-1.9,1.1-2.9,1.6c-4.9,2.5-8.5,7.5-9.1,13"/>
	<path class="st6" d="M621.3,270c1-3.2,2.1-6,0.3-8.9c-1.7-2.8-4.7-4.5-6.4-7.3c-1.2-1.8-1.7-4-2.2-6.1c-1.5-6.5-2.8-13.4-0.5-19.6
		c1.4,0.9,2.1,2.6,2.3,4.3c0.2,1.7,0,3.4,0,5.1c0,5.2,2.1,10.2,5.1,14.5c1.2,1.7,3.2,3.4,5,2.4c4.9-9.1,8.5-18.4,12.3-28
		c1.1-2.7,3.2-5.9,5.9-5.1c-4.3,17.6-10.9,34.5-16.2,51.8c-1.5,5-2.8,10.1-4,15.2c-1.1,4.9-3,10.2-3.1,15.2c-2.5,0-5,0.6-7.3,1.7
		C615.2,293.4,617.5,281.5,621.3,270z"/>
	<path class="st0" d="M1351.8,454c-31.3,10.3-61.8,23.2-92.2,36c-27.7,11.7-55.3,23.3-83,35c-25.5,10.8-51.2,21.6-74.6,36.6
		c-18.2,11.6-44.6,27.7-57.6,45c-5.2,6.9-4.4,17-0.1,24.5c4.3,7.5,11.5,12.9,18.7,17.6c47.6,30.9,105.6,40.2,159.2,59
		c26.2,9.2,51.7,20.9,78.9,26.7c46.5,10,96.7,1.8,137.7-22.4c9.9-5.8,19.4-12.7,26.1-22c11.4-15.5,13.7-35.7,14.9-55
		c1.9-31.2,2.9-62.9,3.6-94c0.5-21.3-2.2-42.7-7.9-63.3c-3.5-12.8-7.8-36.4-21.9-41.6c-6.7-2.4-14-1.9-21.1-1.1
		c-18.6,2.2-37,6.1-55.1,11.1C1368.9,448.6,1360.3,451.2,1351.8,454z"/>
	<path class="st2" d="M1237.9,627.7c-18.1-34-39.2-66.6-53.1-102.5c-8.5-22-14.4-45.3-27.4-64.9c-12.4-18.8-30.5-33-46.8-48.4
		c-16.4-15.5-31.8-33.6-36.3-55.7c23.8,42.8,62.8,56.8,88.1,95.7c1.7,2.7,6.7,19.1,7.4-0.2c-9.5-53.5-19.4-108.1-44.8-156.1
		c3.7,0.9,6.3,4,8.5,7.1c13.1,18.6,18.5,41.4,23.5,63.5c2.7,11.8,5.4,23.6,8.1,35.5c2.2,9.8,4.5,19.6,6.1,29.5
		c3.6,22.2,4,45.1,11.6,66.2c3.6,10.1,8.8,19.6,13.9,29c15.1,27.8,34.2,61.6,49.4,89.4c24-102.8,29.2-117.1,15.8-154.7
		c10.7,9.9,14.7,24.9,16.3,39.4c4.1,35.5-32.7,102.6-20.6,136.2c3.9,10.7,9.6,20.7,14,31.2c10.8,27,13.7,53.2,16.6,81.7
		c-4.7,0-9.3,0-14,0c-1.1-15.5-3-32.7-6.5-47.8C1261.5,675.8,1250.5,651.1,1237.9,627.7z"/>
	<path class="st2" d="M1150.9,615.9c-6.4-5.9-13.1-11.3-20.4-16.3c-35-23.9-79.7-34.9-109.7-64.2c-8.2-8-14.9-17.1-21.6-26.2
		c-7.4-10.2-14.7-20.6-21.9-31c-2.2-0.9-2.9,2.9-1.9,5c15.7,33.5,38.3,56.5,69.1,78.9c23.9,17.4,55.5,27.4,79.5,44.6
		c20.4,14.6,48,39.4,59.6,61.7c6.1,11.7,13.7,22.7,21.3,33.5c2.5,3.5,5.8,7.1,7.8,11c1.7,3.3,1.6,5.4,2,9.2c0.1,0.6,0.2,1.3,0.6,1.8
		c0.5,0.6,1.2,0.8,1.9,1c4.7,1.3,9.6,1.8,14.5,1.5c-1.5,0.1-6.6-14.2-7.9-16.2c-4.9-7.8-10-15.6-15.2-23.2
		c-5.1-7.5-12.3-15.1-16.3-23.2c-7.5-15.3-15.1-29.4-26.2-42.7c-18.4-22-27-50.8-44.5-73.6c-3.8-4.9-8.1-9.9-13.9-12
		c16.6,27.4,32.4,55.4,47.2,83.8C1154.1,618.4,1151.7,616.6,1150.9,615.9z"/>
	<path class="st1" d="M1065.7,540.3c2.8-8.1,4.6-16.6,5.4-25.2c3.2,8.6,5.8,17.6,5.8,26.8c0,5.5-1.3,23-9.6,22.7
		C1056.6,564.2,1064,545.4,1065.7,540.3z"/>
	<path class="st1" d="M1224.5,483.9c3.9,1.4,6.6,5,9,8.4c6.6,9.1,13.1,18.3,19.7,27.4c3.5,4.9,6.6,8.9,8.9,14.7
		c-12.5-5.4-22.7-15-29.4-26.8c-2.1-3.7-3.8-7.5-5.2-11.4C1227.1,494.7,1225.2,484.2,1224.5,483.9z"/>
	<path class="st1" d="M1293.1,553.4c1.6,4.9,4.1,9.8,3.4,14.9c-0.7,5.1-4.7,9.2-9,12c-4.3,2.8-9.2,4.7-13.5,7.7
		c-4.2,2.9-7.6,6.7-11,10.5c-1.9,2.1-3.8,4.2-5.7,6.3c0.7-0.8,0.3-7.6,0.7-9c0.6-2.2,1.4-3.7,2.6-5.6c2.9-4.4,7.2-8.3,11-11.9
		C1279.5,570.8,1288.6,563.8,1293.1,553.4z"/>
	<path class="st1" d="M1275.7,419.6c2,3.6,3.5,7.5,3.8,11.6c0.4,5.4-1.3,10.8-3.8,15.6c-1.8,3.4-4.6,8.8-8.1,10.5
		C1269.8,444.6,1274.4,432.7,1275.7,419.6z"/>
	<path class="st1" d="M1235.2,453.3c-7.7-3.8-13.9-10-15.2-17.3c9.5,1.6,36.5,13.1,35.1,22.5
		C1248.3,458.2,1241.1,456.2,1235.2,453.3z"/>
	<path class="st1" d="M1086.1,385.4c-13.8-5.3-27.6-9.9-40.5-17.4c-9.4-5.5-19.2-12.3-30-11c8.9,1.4,15.1,9.2,22,15
		c7.1,6,15.6,10.1,24.6,12.1c4.6,1,9.1,1.3,13.7,1.4C1078.6,385.6,1083.8,384.5,1086.1,385.4z"/>
	<path class="st1" d="M1098.3,376.2c0-4.9,0.8-9.9-0.1-14.7c4.8,4.9,8,11.3,9.1,18.1c0.6,3.6,0.5,10.9-4.8,9.2
		C1098.4,387.4,1098.3,379.6,1098.3,376.2z"/>
	<path class="st1" d="M1142.8,298.2c1.3-2.6,3.2-5,3.8-7.9c1.1,4,2.3,7.9,3.4,11.9c0.4,1.3,0.7,2.6,0.6,3.9
		c-0.2,2.1-1.7,3.8-3.4,4.9C1137.9,317.1,1140.3,303.3,1142.8,298.2z"/>
	<path class="st1" d="M1177.4,318c0.6,13.9-7.2,38.4-18.4,46.2c-4.3-4-2-11.1-0.4-16.8C1162,336,1173.8,329.3,1177.4,318z"/>
	<path class="st1" d="M985.7,545.3c-13.4-3.7-24.3-13.3-36.4-20.2c7,0.9,14,2.4,20.8,4.4c3,0.9,5.9,1.8,8.8,2.8
		c3.4,1.1,6.8,2.2,10.1,3.4c4.3,1.4,30,7.3,30,11.6c-4.7,1.3-11.4,0.3-16.3,0.1C997,547.3,991.3,546.8,985.7,545.3z"/>
	<path class="st3" d="M951.5,482.2c-0.1-0.1-0.1-0.2-0.2-0.3c-0.1-0.2-0.3-0.4-0.3-0.6c0-0.3,0.2-0.5,0.3-0.7c1.5-1.9,3-3.7,4.4-5.6
		c-4.2,2.7-9.1,4.3-14.1,4.7c-0.4,0-0.8,0.1-1.1-0.1c-0.4-0.2-0.7-0.5-1-0.8c-1.3-1.5-6.1-6.5-5.3-8.4c0.4-1,2.3-2.3,3.1-3
		c2.8-2.5,7.1-3.1,10.6-4.1c-2.2-1.8-4.2-3-6.6-4.4c-0.4-0.2-0.9-0.5-1.2-0.9c-0.8-1-0.2-2.5,0.3-3.6c1.5-3.6,2.6-7.5,3.1-11.4
		c3,0.2,6,0.5,9,0.7c1.8,0.1,3.6,0.3,5.2,1.2c0.9,0.5,1.7,1.2,2.3,2c0.4,0.5,1,2,1.5,2.3c2.1,0.9,1.2-3.7,1.1-4.6
		c-0.1-0.8-0.2-1.6,0.2-2.3c0.4-0.7,1.3-1,2.1-1.1c4.3-1,8.6-3.3,12.6-5.1c0.4-0.2,3.7,5.2,4,5.7c1,1.6,1.9,3.6,2.5,5.5
		c0.1,0.4,0.2,0.9,0,1.3c-0.1,0.3-0.3,0.5-0.5,0.7c-0.8,0.8-3.6,3.6-3.1,4.8c0.6,1.6,3.3-0.3,4.2-0.6c0.9-0.3,1.9-0.7,2.8-1
		c0.5-0.2,1-0.4,1.6-0.4c0.7,0,1.4,0.3,2.1,0.5c2.5,1.1,4.9,2.3,7.3,3.7c-1.1,3.3-2.5,6.5-4.3,9.5c-0.2,0.3-0.4,0.6-0.6,0.8
		c-0.3,0.2-0.7,0.2-1.1,0.2c-3.1,0.1-6.2,0.1-9.3,0.1c4.2,0.9,8.6,1.4,12.9,1.6c1,3.7,2.4,7.4,4.2,10.8c-2.5,1.8-5.1,3.5-7.7,5.1
		c-0.4,0.2-0.8,0.4-1.2,0.5c-0.6,0.1-1.1-0.1-1.6-0.4c-6.8-2.9-13.3-6.3-19.5-10.3c0.3,3.3,0.6,6.6,0.9,9.8c0.1,0.6,0.1,1.2-0.2,1.7
		c-0.3,0.4-0.7,0.7-1.2,1c-3.4,1.8-6.8,3.7-10.2,5.5c-0.3,0.2-0.6,0.3-0.9,0.3c-0.5-0.1-0.8-0.5-1-0.8
		C955.7,488.4,953.6,485.3,951.5,482.2z"/>
	<path class="st4" d="M969.7,461.9c-0.3-0.5-0.6-0.9-1.1-1.2c-1.4-1.1-6.2-1.9-6.9,0.2c-0.5,1.2-0.9,2.5-1.4,3.7
		c-0.4,1-0.7,2.1-0.4,3.1c0.5,1.3,2.1,1.9,3.5,1.8s2.6-1,3.8-1.8c1-0.7,2-1.3,3-2c0.2-0.1,0.4-0.3,0.5-0.5c0.3-0.5,0.1-1.2-0.2-1.8
		C970.3,463,970.1,462.4,969.7,461.9z"/>
	<path class="st3" d="M1058.1,359.5c0,0,0.1,0,0.1,0c-3.5-2.3-10.5-0.9-14.5-0.9c-1-3-2.1-5.9-3.1-8.9c4.9-2.6,10.2-5.6,12-10.8
		c3.6,4,7.7,7.4,12.3,10.2c0.7-5.2,0.6-10.5-0.3-15.7c3.2-1.9,6.4-3.8,9.6-5.7c0.6-0.4,1.4-0.8,2.1-0.6c0.7,0.1,1.2,0.7,1.6,1.2
		c1.4,1.4,2.9,2.6,4.6,3.5c0.7,0.4,4.1,1.3,4.4,2c-0.1-0.3-2.6,8.4-2,8.1c2.5-1.9,5.7-2.5,8.9-2.2c3.1,0.2,6.1,1.1,9.1,2.1
		c-0.4,3-0.3,6.1,0.2,9.2c-4.6,1.8-9.2,3.6-13.8,5.4c4.8-1.3,10.4,1.1,12.7,5.4c-0.7,0.5-1.5,1-2.2,1.5c-3.5,2.3-7.2,4.7-11.4,4.6
		c-3.8-0.2-7.1-2.4-10.2-4.6c-1,2.8-2.2,5.5-3.6,8.1c-4.7-1.6-9.6-2.5-14.6-2.6c-1.5,0-3.1,0-4.5-0.6c-0.6-0.3-3.8-4.5-3.7-4.6
		C1053.8,362,1055.8,360.4,1058.1,359.5z"/>
	<path class="st4" d="M1065.9,352.9c1-0.8,1.9-1.5,3-2.2c2.2-1.5,4.4-3,6.7-4.3c0.3-0.2,0.7-0.3,0.9-0.1c0.1,0.1,0.1,0.2,0.2,0.3
		c0.6,1.6,1,4.1,0.4,5.8c-0.6,1.6-2.2,2.1-3.9,2.4c-1.3,0.2-2.7-0.1-4-0.1C1068.2,354.7,1063.5,355,1065.9,352.9z"/>
	<path class="st3" d="M1244.1,434.3c-0.3-1.7-0.2-3.7,1.2-4.6c1.1,0.9,2.5,1.5,4,1.6c1.6-5.2,3.7-10.2,6.3-15
		c0.3-0.6,0.7-1.2,1.4-1.2c0.3,0,0.6,0.3,0.9,0.5c2.6,2.2,4.7,5,6.1,8.2c0.3,0.6,0.5,1.3,1,1.7c1.2,1.2,3.3,0.8,4.9,0.1
		c1.6-0.8,3.1-1.9,4.8-1.8c2.7,0.1,4.5,3.3,4.3,6c-0.2,2.7-1.8,5.1-3.1,7.5c-1.4,2.4-2.5,4.9-3.5,7.4c-0.8,2-0.8,4.9-2.1,6.6
		c-1.2,1.6-2.4,3.2-3.6,4.8c-1,1.3-2,2.6-3.4,3.2c-1.8,0.7-3.8,0.2-5.4-0.8c-1.6-1-2.8-2.6-3.9-4
		C1249,448.1,1245.5,442.2,1244.1,434.3z"/>
	<path class="st3" d="M1093.9,288.4c-1.5-1.9-2.9-4-4.1-6.1c4.4-1.2,8.9-2.4,13.3-3.5c-2.9-7-6.8-14.3-3.4-20.9
		c3.4,0.5,6.7,0.9,10.1,1.4c0.9,0.1,1.9,0.3,2.6,0.9c0.6,0.6,1,1.4,1.3,2.2c1.2,2.9,2.4,5.8,3.7,8.7c2.5-3.5,3.3-8.3,5.9-11.8
		c3.1-4.3,8.4-6,13.3-7.5c3.1,2.5,5.8,5.6,7.8,9.1c-2.4,4.6-5.6,8.2-8.5,12.3c5.8,0.5,11.7,1.5,17.5,2.4c0,4.7,0,9.5,0,14.2
		c-6.6-0.2-13.1,0.1-19.4,1c-0.5,2.6-1,5.1-1.5,7.7c-0.1,0.3-0.1,0.6-0.3,0.8c-0.3,0.2-0.7,0.2-1.1,0.1c-4.3-0.7-7.5-0.5-11.5-0.4
		c-4.6,0.2-9.7-2.3-14.4-3.5c-1.9-0.5-3.8-1-5.6-1.9C1097.4,292.4,1095.5,290.6,1093.9,288.4z"/>
	<path class="st4" d="M1116.1,283.1c-0.6-0.4-1.2-1-1.3-1.7c2.6-1.5,5.3-3,8-4.3c0.2-0.1,0.5-0.3,0.8-0.2c0.2,0,0.3,0.2,0.4,0.3
		c1.1,0.9,2.1,1.9,3.2,2.8c-1.3,2-2.6,4.1-3.9,6.1C1121.6,288.7,1117.8,284.4,1116.1,283.1z"/>
	<path class="st1" d="M1123.2,465.7c1.1,0.7,2.1,1.4,3.9,1.9c1.5,0.4,3.4,0.6,5.3,0.7c7.7,0.6,20.5,4,28.3,1.7
		c0.6-0.2,1.1-0.4,1.4-0.7c0.3-0.4-0.2-0.8-0.7-1.1c-3.7-2.5-7.5-5-11.2-7.5c-3.8-2.6-7.7-5.1-12.9-6.9c-5.8-2-12.8-2.9-19.8-3.8
		c-4.4-0.6-13.6-3.1-16.2,0.3c-1.3,1.7,3.5,4.5,5.1,5.6C1111.4,459.4,1118,462.2,1123.2,465.7z"/>
	<path class="st7" d="M87.6,541.1c3.4-0.8,6.7-1.6,10.1-2.5c11.3,35.1,24.3,71.5,31.2,107.8c-13,2.7-20-38-22.4-47.3
		C105,594,91.3,540.2,87.6,541.1z"/>
	<path class="st7" d="M67.3,486c3.9-1.1,8.7-2,11.6,0.8c0.9,0.8,1.4,1.9,2,3c2,3.9,19.1,41.5,6.8,40.9
		C82.2,530.4,71.7,484.8,67.3,486z"/>
	<path class="st7" d="M125.3,558.4c1.5,0,3.1,0,4.6,0c6,17.4,14.4,36.5,17.3,54.6c-8.3-0.2-11.2-16-13.4-22
		C132.8,588.2,125.2,558.4,125.3,558.4z"/>
	<path class="st7" d="M114.4,517c1.5,0,3.1,0.1,4.6,0.1c0.1,0,8.8,26.5,4.1,28.4C119,547.2,115.3,521.2,114.4,517z"/>
	<path class="st7" d="M117.3,511c-1.7,0-3.5-0.1-5.2-0.1c-2-7.2-3.9-14.3-5.9-21.5c-0.1-0.5-0.3-1.1-0.1-1.5
		c0.4-0.8,1.6-0.9,2.3-0.3c0.7,0.5,1.1,1.4,1.4,2.2c2.3,6.5,4.5,13,6.4,19.6c-0.9-0.4-1.9-0.5-2.9-0.3"/>
	<path class="st7" d="M156,524.3c2-0.1,3.8,1.4,4.8,3.1c1,1.7,1.4,3.8,1.7,5.7c3.6,20.9,1.4,41.7,3.3,62.9c-0.6-0.2-1.2-0.3-1.7-0.5
		c-4.5-1.3-4.1-27.9-4.5-32.8C159.4,559.5,156.8,524.2,156,524.3z"/>
	<path class="st7" d="M158,518.3c-0.8,0-1.6-0.1-2.5-0.1c-1.7-8.3-2.7-16.7-3-25.1c1.8-1,3.3,1.5,3.8,3.5c1.6,6.7,2.8,13.5,3.6,20.3
		c-0.9,0-1.7,0-2.6,0.1"/>
	<path class="st7" d="M153.4,486.2c-0.5,0.6-1.6,0.4-2.2-0.2c-0.5-0.6-0.7-1.5-0.8-2.3c-0.8-5.9-1.6-11.9-2.3-17.8
		c1.1-1,2.5,1,2.6,2.4c0.6,5,1.3,10,1.9,15c0.1,0.5,0.1,1.1-0.3,1.4c-0.4,0.3-1.2,0-1-0.4"/>
	<path class="st7" d="M178.7,542.5c1.7-1.3,4.5-0.3,5.7,1.5c1.2,1.9,1.3,4.2,1.3,6.4c0.2,14.4,0.5,28.9,0.7,43.3
		c0.1,3.7,3.8,32.6-6.3,27.9c-4.5-2.1-1.4-31.8-1.4-37.3c0-7.1,0-14.2,0-21.3C178.7,560.2,176.9,543.9,178.7,542.5z"/>
	<path class="st7" d="M175.7,494.6c4.6-7.4,5.4,7,5.3,8.1c-0.1,6.7,0.4,13.3,1.6,19.8c0.4,2.4,0.9,4.9,0.1,7.2
		c-2.5,6.6-5.7,1.6-7-1.3c-1.4-3.5-0.8-9.3-1-13C174.5,510,172.7,499.4,175.7,494.6z"/>
	<path class="st7" d="M1077.9,648.6c2.3,0.3,4.5,0.5,6.8,0.8c-0.2,22.9,0.4,46.8-2.8,69.4c-8.7-1.3-4.6-26.5-4.3-32.4
		C1077.8,683.1,1080.3,648.9,1077.9,648.6z"/>
	<path class="st7" d="M1076.6,612.1c2.7,0.2,5.9,0.8,7.1,3.1c0.4,0.7,0.5,1.4,0.6,2.2c0.5,2.7,3.3,28.3-4.2,25.2
		C1076.7,641.2,1079.6,612.4,1076.6,612.1z"/>
	<path class="st7" d="M1097.8,667c1,0.3,1.9,0.7,2.9,1c0.1,11.4,1.5,24.4-0.4,35.5c-5.2-2-3.7-11.8-3.8-15.8
		C1096.4,686,1097.8,667,1097.8,667z"/>
	<path class="st7" d="M1099.6,640.6c1,0.4,1.9,0.7,2.9,1.1c0.1,0,0,17.3-3.3,17.4C1096.2,659.1,1099.3,643.3,1099.6,640.6z"/>
	<path class="st7" d="M1102.7,637.8c-1.1-0.4-2.1-0.8-3.2-1.2c0.3-4.6,0.5-9.2,0.8-13.8c0-0.3,0-0.7,0.3-0.9
		c0.4-0.4,1.2-0.2,1.5,0.3s0.4,1,0.4,1.6c0.1,4.3,0.1,8.5-0.1,12.8c-0.5-0.4-1.1-0.7-1.7-0.8"/>
	<path class="st7" d="M1057,680.7c2.6-0.2,5,0.5,6.4,1.5c1.4,1,1.9,2.2,2.5,3.4c5.6,12.5,3.6,25.5,7,38.3c-0.8,0-1.5-0.1-2.3-0.1
		c-5.9-0.4-6.5-16.8-7.2-19.8C1062.9,702,1058,680.6,1057,680.7z"/>
	<path class="st7" d="M1112.5,661.7c1.4-0.4,2.9,0.8,3.2,2.2c0.4,1.3-0.1,2.7-0.5,4c-2.8,8.4-5.7,16.8-8.5,25.3
		c-0.7,2.2-4.3,19.7-9.7,14.7c-2.4-2.2,5.7-18.8,6.8-21.9c1.5-4.1,2.9-8.2,4.4-12.3C1108.9,672,1111.1,662.1,1112.5,661.7z"/>
	<path class="st7" d="M1121.6,632.3c4.4-3.2,1.9,5.3,1.7,5.9c-1.4,3.8-2.5,7.8-3.1,11.9c-0.2,1.5-0.4,3-1.4,4.2
		c-2.9,3.3-3.9-0.3-4.1-2.3c-0.2-2.3,1.4-5.6,2.1-7.7C1117.6,641,1118.7,634.4,1121.6,632.3z"/>
	<path class="st7" d="M1043.2,643.2c1.2-3.3,3.7-4.4,6.5,0.2c0.7,1.1,16,29.6,11.6,29.6c-3.1,0-6.1,0-9.2,0
		c-2.4-4.9-4-10.7-6.3-15.8c-1.4-3.3-3.8-8.4-3.1-12.1C1042.9,644.4,1043,643.8,1043.2,643.2z"/>
</g>
<g id="Layer_3">
</g>
</svg>
